# xmcd
#
# Track frame offsets:
#	150
#	42675
#	85470
#	132715
#	173115
#
# Disc length: 2869 seconds
#
# Revision: 1
# Processed by: cddbd v1.5.1PL0 Copyright (c) Steve Scherf et al.
# Submitted via: CDex 1.50Beta5
#
DISCID=480b3305
DTITLE=桜庭統 - ビヨンド ザ ビヨンド
DYEAR=1900
DGENRE=Soundtrack
TTITLE0=約束の地へ
TTITLE1=飛翔の時
TTITLE2=Beyond the World
TTITLE3=無情の原野
TTITLE4=新たなる旅立ち
EXTD=
EXTT0=
EXTT1=
EXTT2=
EXTT3=
EXTT4=
PLAYORDER=
